<?xml version="1.0" encoding="UTF-8"?>
<svg id="Capa_1" xmlns="http://www.w3.org/2000/svg" version="1.1" viewBox="0 0 676.51 200.67">
  <!-- Generator: Adobe Illustrator 29.4.0, SVG Export Plug-In . SVG Version: 2.1.0 Build 152)  -->
  <defs>
    <style>
      .st0 {
        fill: #8bc53f;
      }

      .st1 {
        fill: #0a4875;
      }

      .st2 {
        fill: #7b7f80;
      }
    </style>
  </defs>
  <g>
    <g>
      <path class="st0" d="M213.13,150.23c-8.35,0-15.87-2.54-22.57-7.62-.85-.54-1.28-1.35-1.28-2.43,0-.86.31-1.61.94-2.23.62-.62,1.39-.93,2.3-.93.85,0,1.53.24,2.04.73,5.56,4.48,11.84,6.73,18.82,6.73,3.97,0,7.18-.9,9.62-2.71,2.44-1.81,3.66-4.12,3.66-6.93v-.16c0-2.75-1.08-4.94-3.24-6.56-2.16-1.62-6.25-3.02-12.26-4.21-7.04-1.46-12.14-3.42-15.29-5.87-3.15-2.46-4.73-5.95-4.73-10.49v-.16c0-4.48,1.84-8.18,5.54-11.1,3.69-2.92,8.37-4.38,14.05-4.38,7.21,0,13.54,1.86,18.99,5.59.96.7,1.45,1.57,1.45,2.59,0,.86-.31,1.59-.94,2.19-.63.6-1.39.89-2.3.89-.74,0-1.39-.19-1.96-.57-4.77-3.29-9.91-4.94-15.41-4.94-3.8,0-6.87.88-9.2,2.63-2.33,1.76-3.49,3.93-3.49,6.52v.16c0,2.81,1.12,5.02,3.36,6.64,2.24,1.62,6.51,3.08,12.82,4.38,6.76,1.41,11.68,3.36,14.78,5.87,3.09,2.51,4.64,5.9,4.64,10.17v.16c0,4.81-1.9,8.68-5.71,11.63-3.8,2.94-8.69,4.42-14.65,4.42Z"/>
      <path class="st0" d="M266.78,150.31c-7.55,0-13.57-2.15-18.05-6.44-4.49-4.29-6.73-10.36-6.73-18.19v-30.14c0-.86.33-1.62.98-2.27.65-.65,1.43-.97,2.34-.97.96,0,1.77.31,2.43.93.65.62.98,1.39.98,2.31v29.74c0,6.05,1.62,10.75,4.85,14.1,3.24,3.35,7.69,5.02,13.37,5.02s10.02-1.59,13.2-4.78c3.18-3.19,4.77-7.83,4.77-13.94v-30.14c0-.92.34-1.69,1.02-2.31.68-.62,1.48-.93,2.38-.93s1.69.32,2.34.97c.65.65.98,1.41.98,2.27v29.65c0,8.1-2.24,14.31-6.73,18.63-4.49,4.32-10.53,6.48-18.14,6.48Z"/>
      <path class="st0" d="M304.17,146.18v-50.23c0-.86.33-1.62.98-2.27.65-.65,1.43-.97,2.34-.97h17.37c9.25,0,16.85,2.69,22.78,8.06,5.93,5.37,8.9,12.09,8.9,20.13v.16c0,8.1-2.97,14.85-8.9,20.26-5.93,5.4-13.53,8.1-22.78,8.1h-17.37c-.91,0-1.69-.32-2.34-.97-.65-.65-.98-1.4-.98-2.27ZM310.89,143.51h13.97c7.38,0,13.34-2.11,17.88-6.32,4.54-4.21,6.81-9.53,6.81-15.96v-.16c0-6.43-2.27-11.78-6.81-16.04-4.54-4.27-10.5-6.4-17.88-6.4h-13.97v44.89Z"/>
    </g>
    <g>
      <path class="st1" d="M368.12,146.67v-51.04c0-.86.33-1.61.98-2.23.65-.62,1.43-.93,2.34-.93h.77c1.3,0,2.36.57,3.15,1.7l21.29,30.46,21.29-30.46c.74-1.13,1.79-1.7,3.15-1.7h.77c.91,0,1.69.31,2.34.93.65.62.98,1.36.98,2.23v50.96c0,.86-.33,1.62-.98,2.27-.65.65-1.43.97-2.34.97s-1.7-.32-2.38-.97c-.68-.65-1.02-1.4-1.02-2.27v-42.29l-19.08,26.66c-.8,1.08-1.73,1.62-2.81,1.62-1.14,0-2.1-.54-2.9-1.62l-18.99-26.57v42.29c0,.86-.31,1.61-.94,2.23-.63.62-1.42.93-2.38.93-.91,0-1.68-.31-2.3-.93-.63-.62-.94-1.36-.94-2.23Z"/>
      <path class="st1" d="M474.79,144.07c-4.6,4.21-10.13,6.32-16.61,6.32s-11.4-2.04-15.63-6.12c-4.23-4.08-6.34-9.3-6.34-15.68v-.16c0-6.1,2.01-11.26,6.05-15.47,4.03-4.21,9.06-6.32,15.07-6.32s11.21,2.08,14.9,6.24c3.69,4.16,5.54,9.16,5.54,14.99,0,.81-.3,1.5-.89,2.07-.6.57-1.32.85-2.17.85h-31.85c.45,4.43,2.14,7.9,5.07,10.41,2.92,2.51,6.4,3.77,10.43,3.77,4.77,0,9-1.62,12.69-4.86.62-.49,1.25-.73,1.87-.73.79,0,1.48.26,2.04.77.57.51.85,1.15.85,1.9,0,.81-.34,1.49-1.02,2.03ZM442.86,126.17h28.36c-.34-4.1-1.73-7.51-4.17-10.21-2.44-2.7-5.74-4.05-9.88-4.05-3.8,0-7.03,1.35-9.67,4.05-2.64,2.7-4.19,6.1-4.64,10.21Z"/>
      <path class="st1" d="M528.67,93.03v53.64c0,.86-.31,1.61-.94,2.23-.63.62-1.39.93-2.3.93s-1.69-.31-2.34-.93c-.65-.62-.98-1.36-.98-2.23v-5.67c-4.43,6.21-10.05,9.32-16.86,9.32-5.62,0-10.53-1.97-14.73-5.91-4.2-3.94-6.3-9.21-6.3-15.8v-.16c0-6.53,2.1-11.8,6.3-15.8,4.2-4,9.11-6,14.73-6,6.93,0,12.55,2.97,16.86,8.91v-22.52c0-.92.31-1.67.94-2.27.62-.59,1.39-.89,2.3-.89.96,0,1.76.31,2.38.93.62.62.94,1.36.94,2.23ZM506.45,112.23c-4.43,0-8.12,1.46-11.07,4.38-2.95,2.92-4.43,6.83-4.43,11.75v.16c0,4.81,1.52,8.71,4.56,11.71,3.04,3,6.69,4.5,10.94,4.5s7.98-1.53,11.16-4.58c3.18-3.05,4.77-6.93,4.77-11.63v-.16c0-4.64-1.59-8.49-4.77-11.55-3.18-3.05-6.9-4.58-11.16-4.58Z"/>
      <path class="st1" d="M540.23,95.46v-1.05c0-.97.37-1.77,1.11-2.39.74-.62,1.65-.93,2.72-.93,1.14,0,2.07.31,2.81.93.74.62,1.11,1.42,1.11,2.39v1.05c0,.97-.37,1.77-1.11,2.39-.74.62-1.68.93-2.81.93s-1.99-.31-2.72-.93c-.74-.62-1.11-1.42-1.11-2.39ZM540.83,146.67v-36.38c0-.86.31-1.61.94-2.23.62-.62,1.39-.93,2.3-.93.96,0,1.76.3,2.39.89.62.6.94,1.35.94,2.27v36.38c0,.92-.31,1.68-.94,2.27-.63.59-1.39.89-2.3.89s-1.69-.31-2.34-.93c-.65-.62-.98-1.36-.98-2.23Z"/>
      <path class="st1" d="M579.3,150.39c-6.36,0-11.71-2.13-16.05-6.4-4.34-4.27-6.51-9.37-6.51-15.31v-.16c0-6,2.17-11.14,6.51-15.43,4.34-4.29,9.69-6.44,16.05-6.44s11.52,2.03,16.18,6.08c.68.54,1.02,1.27,1.02,2.19,0,.86-.31,1.58-.94,2.15-.63.57-1.36.85-2.21.85-.8,0-1.51-.24-2.13-.73-3.8-3.35-7.81-5.02-12.01-5.02-4.43,0-8.16,1.57-11.2,4.7-3.04,3.13-4.56,6.97-4.56,11.51v.16c0,4.54,1.55,8.39,4.64,11.55,3.09,3.16,6.94,4.74,11.54,4.74s8.46-1.7,12.26-5.1c.57-.54,1.19-.81,1.87-.81.79,0,1.49.28,2.09.85.6.57.89,1.23.89,1.99s-.29,1.41-.85,1.94c-4.71,4.48-10.25,6.72-16.61,6.72Z"/>
      <path class="st1" d="M619.05,150.31c-4.43,0-8.28-1.16-11.54-3.48-3.27-2.32-4.9-5.51-4.9-9.56v-.16c0-4.32,1.7-7.66,5.11-10.01,3.41-2.35,7.98-3.52,13.71-3.52,4.6,0,9.11.6,13.54,1.78v-1.46c0-3.73-1.14-6.56-3.41-8.51-2.27-1.94-5.51-2.92-9.71-2.92-3.92,0-7.72.78-11.41,2.35-.4.16-.8.24-1.19.24-.8,0-1.48-.27-2.04-.81-.57-.54-.85-1.16-.85-1.86,0-1.3.6-2.16,1.79-2.59,4.6-1.89,9.4-2.84,14.39-2.84,6.25,0,10.99,1.54,14.22,4.62,3.01,2.86,4.51,6.94,4.51,12.23v22.93c0,.86-.3,1.59-.89,2.19-.6.59-1.35.89-2.26.89s-1.66-.28-2.26-.85c-.6-.57-.89-1.26-.89-2.07v-3.81c-3.86,4.81-9.17,7.21-15.93,7.21ZM620.33,145.37c4.09,0,7.56-1.07,10.43-3.2,2.87-2.13,4.3-4.85,4.3-8.14v-4.05c-4.32-1.19-8.63-1.78-12.95-1.78-4.09,0-7.25.78-9.5,2.35-2.24,1.57-3.36,3.67-3.36,6.32v.16c0,2.54,1.06,4.56,3.19,6.08,2.13,1.51,4.75,2.27,7.88,2.27Z"/>
    </g>
  </g>
  <path class="st2" d="M144.04,148.93V49.18c0-.67.25-1.25.77-1.74s1.12-.73,1.83-.73,1.32.24,1.83.73c.51.49.77,1.06.77,1.74v99.75c0,.67-.26,1.25-.77,1.74-.51.48-1.12.73-1.83.73s-1.32-.24-1.83-.73c-.51-.49-.77-1.06-.77-1.74Z"/>
  <g>
    <path class="st2" d="M194.58,43.91c0-1.5,1.24-2.2,2.9-2.2s3.02.7,3.02,2.2v37.98c0,1.45-1.3,2.2-3.02,2.2s-2.9-.75-2.9-2.2v-37.98Z"/>
    <path class="st2" d="M238.65,81.94c0,1.45-1.23,2.14-2.83,2.14s-2.83-.7-2.83-2.14v-17.14c0-4.55-2.1-7.13-6.72-7.13-3.33,0-6.1,1.29-8.2,3.81-1.54,1.82-2.16,3.37-2.16,5.46v15c0,1.45-1.17,2.14-2.78,2.14-1.72,0-2.83-.7-2.83-2.14v-26.09c0-1.39,1.17-2.09,2.9-2.09,1.6,0,2.71.7,2.71,2.09v1.45c0,.7-.18,1.23-.25,2.25,2.16-3.8,5.86-6.21,11.71-6.21,7.33,0,11.28,3.86,11.28,10.44v18.16Z"/>
    <path class="st2" d="M269.47,55.32c.49-1.07,1.36-1.55,2.47-1.55.37,0,.74.05,1.17.16,1.23.32,2.03,1.02,2.03,2.04,0,.27-.06.59-.25.91l-11.34,25.07c-.74,1.66-2.1,2.14-3.7,2.14s-2.96-.53-3.7-2.2l-11.34-25.01c-.12-.32-.18-.59-.18-.86,0-1.02.8-1.82,1.97-2.09.43-.11.86-.16,1.23-.16,1.11,0,2.03.43,2.47,1.5l7.15,16.87c.74,1.82,1.97,5.41,2.47,7.34.55-1.98,1.73-5.79,2.53-7.61l7.03-16.55Z"/>
    <path class="st2" d="M285.05,69.84c.12,6.59,3.89,10.71,10.54,10.71,4.44,0,6.9-1.93,8.38-4.77.55-.96,1.36-1.34,2.22-1.34.43,0,.86.11,1.3.22,1.05.27,1.91.91,1.91,1.87,0,.32-.06.64-.31.96-1.97,3.54-5.55,7.07-13.56,7.07-10.11,0-15.97-6.21-15.97-15.48s5.55-15.75,15.6-15.75c9,0,14.05,6.11,14.67,13.12v.43c0,1.93-1.17,2.95-3.08,2.95h-21.7ZM303.3,65.92c.68,0,.93-.22.93-.7v-.27c-.74-3.8-3.39-7.71-9.06-7.71s-9.13,3.43-9.93,8.68h18.06Z"/>
    <path class="st2" d="M317.41,55.85c0-1.39,1.17-2.09,2.9-2.09,1.54,0,2.77.7,2.77,2.09v1.18c0,.75-.24,1.66-.37,2.52.99-2.57,4.13-5.89,9.43-6.06.49-.05.92-.05,1.35-.05.93,0,1.6.11,2.47.27,1.42.16,1.97.91,1.97,1.93,0,.27-.06.59-.12.91-.24,1.12-1.11,2.09-2.4,2.09-.18,0-.37,0-.55-.05-.86-.16-1.66-.32-2.96-.32-2.65.05-4.68,1.23-6.23,2.95-1.6,1.72-2.53,3.7-2.59,5.95v14.78c0,1.45-1.23,2.14-2.77,2.14-1.73,0-2.9-.7-2.9-2.14v-26.09Z"/>
    <path class="st2" d="M352.91,70.16c-7.58-1.29-10.73-3.59-10.73-8.68s4.81-8.2,12.76-8.2c6.84,0,11.22,2.52,12.76,6.43.06.22.12.43.12.64,0,1.02-1.05,1.72-2.16,1.98-.31.05-.68.11-.99.11-1.11,0-2.22-.43-2.53-1.45-.8-2.41-3.51-3.64-7.03-3.64-4.99,0-7.33,1.77-7.33,4.02,0,2.46,1.17,3.54,6.35,4.5l3.82.7c8.01,1.45,11.22,3.48,11.22,9.11,0,5.14-5.06,8.95-13.68,8.95-7.89,0-12.51-2.73-14.12-7.5-.06-.27-.12-.48-.12-.7,0-1.07,1.05-1.82,2.22-2.03.31-.05.62-.11.86-.11,1.17,0,2.28.43,2.65,1.45,1.11,3.11,3.64,4.66,8.51,4.66s8.13-1.87,8.13-4.61-1.6-4.07-7.21-5.04l-3.51-.59Z"/>
    <path class="st2" d="M383.11,45.25c0,2.09-1.85,3.64-4.13,3.64s-4.19-1.55-4.19-3.64,1.85-3.59,4.19-3.59,4.13,1.55,4.13,3.59ZM376.14,55.85c0-1.39,1.05-2.09,2.78-2.09s2.83.7,2.83,2.09v26.09c0,1.45-1.17,2.14-2.83,2.14s-2.78-.7-2.78-2.14v-26.09Z"/>
    <path class="st2" d="M420.58,68.87c0,9.32-5.92,15.75-15.53,15.75-10.17,0-16.09-6.21-16.09-15.75s5.98-15.53,15.97-15.53,15.66,6.21,15.66,15.53ZM394.63,69.03c0,6.8,3.7,11.46,10.05,11.46,6.72,0,10.23-4.55,10.23-11.68,0-6.75-3.51-11.36-9.8-11.36-6.66,0-10.48,4.45-10.48,11.57Z"/>
    <path class="st2" d="M456.08,81.94c0,1.45-1.23,2.14-2.83,2.14s-2.83-.7-2.83-2.14v-17.14c0-4.55-2.1-7.13-6.72-7.13-3.33,0-6.1,1.29-8.2,3.81-1.54,1.82-2.16,3.37-2.16,5.46v15c0,1.45-1.17,2.14-2.78,2.14-1.72,0-2.83-.7-2.83-2.14v-26.09c0-1.39,1.17-2.09,2.9-2.09,1.6,0,2.71.7,2.71,2.09v1.45c0,.7-.18,1.23-.25,2.25,2.16-3.8,5.86-6.21,11.71-6.21,7.33,0,11.28,3.86,11.28,10.44v18.16Z"/>
    <path class="st2" d="M468.59,69.84c.12,6.59,3.89,10.71,10.54,10.71,4.44,0,6.9-1.93,8.38-4.77.55-.96,1.36-1.34,2.22-1.34.43,0,.86.11,1.3.22,1.05.27,1.91.91,1.91,1.87,0,.32-.06.64-.31.96-1.97,3.54-5.55,7.07-13.56,7.07-10.11,0-15.97-6.21-15.97-15.48s5.55-15.75,15.6-15.75c9,0,14.05,6.11,14.67,13.12v.43c0,1.93-1.17,2.95-3.08,2.95h-21.7ZM486.83,65.92c.68,0,.93-.22.93-.7v-.27c-.74-3.8-3.39-7.71-9.06-7.71s-9.13,3.43-9.93,8.68h18.06Z"/>
    <path class="st2" d="M509.82,70.16c-7.58-1.29-10.73-3.59-10.73-8.68s4.81-8.2,12.76-8.2c6.84,0,11.22,2.52,12.76,6.43.06.22.12.43.12.64,0,1.02-1.05,1.72-2.16,1.98-.31.05-.68.11-.99.11-1.11,0-2.22-.43-2.53-1.45-.8-2.41-3.51-3.64-7.03-3.64-4.99,0-7.33,1.77-7.33,4.02,0,2.46,1.17,3.54,6.35,4.5l3.82.7c8.01,1.45,11.22,3.48,11.22,9.11,0,5.14-5.06,8.95-13.68,8.95-7.89,0-12.51-2.73-14.12-7.5-.06-.27-.12-.48-.12-.7,0-1.07,1.05-1.82,2.22-2.03.31-.05.62-.11.86-.11,1.17,0,2.28.43,2.65,1.45,1.11,3.11,3.64,4.66,8.51,4.66s8.13-1.87,8.13-4.61-1.6-4.07-7.21-5.04l-3.51-.59Z"/>
  </g>
  <g>
    <path class="st2" d="M77.31,142.16l-12.59,2.98c-.64.47-1.2,1.1-1.44,1.89-.1.34-.15.69-.15,1.06,0,.34.05.66.16,1.02.25.81.79,1.49,1.49,1.99l13.86-3.28c1.56-.37,2.53-1.94,2.16-3.5-.37-1.57-1.94-2.54-3.5-2.16Z"/>
    <path class="st2" d="M94.77,94.05l-8.25,1.95c1.32,1.14,2.54,2.38,3.62,3.74.25.28.48.58.68.88.07.09.11.2.18.3l5.12-1.21c1.56-.37,2.53-1.94,2.16-3.5-.37-1.56-1.94-2.54-3.5-2.16Z"/>
    <path class="st2" d="M59.47,103.85c-.1-.02-.18-.04-.24-.06l-.45-.11h-.04c-.28-.09-.54-.17-.81-.24-.55.68-.82,1.56-.6,2.47.32,1.34,1.51,2.24,2.83,2.24.22,0,.45-.03.67-.08l8.37-1.98-8.74-2c-.31-.07-.64-.15-.98-.23Z"/>
    <path class="st2" d="M102.45,81.72l-30.94,7.33,2.42.55c2.64.6,5.28,1.65,7.72,3.02l22.14-5.24c1.56-.37,2.53-1.94,2.16-3.5-.37-1.56-1.94-2.54-3.5-2.16Z"/>
    <path class="st2" d="M109.67,72.79c-.37-1.56-1.94-2.54-3.5-2.16l-52.03,12.32c.81.63,1.67,1.24,2.59,1.78,1.47.85,3.37,1.57,5.77,2.22l45.01-10.66c1.56-.37,2.53-1.94,2.16-3.5Z"/>
    <path class="st2" d="M47.86,74.41c.51,1.45,1.22,2.84,2.11,4.15.11.16.25.3.37.46l50.05-11.85c1.56-.37,2.53-1.94,2.16-3.5-.37-1.56-1.95-2.54-3.5-2.16l-51.4,12.17c.07.24.13.49.21.73Z"/>
    <path class="st2" d="M46.92,66.07c-.08.67-.12,1.37-.12,2.07,0,.2.03.41.03.61l38.95-9.22c1.56-.37,2.53-1.94,2.16-3.5-.37-1.56-1.95-2.53-3.5-2.16l-36.75,8.7c-.37,1.13-.65,2.3-.78,3.5Z"/>
    <path class="st2" d="M68.27,49.59c-.08-.33-.23-.62-.41-.89h-.34c-5,0-9.83,1.7-13.59,4.78-1.17.96-2.18,2.06-3.08,3.22l15.26-3.61c1.56-.37,2.53-1.94,2.16-3.5Z"/>
    <path class="st2" d="M78.28,114.37c-.2-1.15-.62-2.23-1.25-3.23-.37-.6-.86-1.14-1.37-1.66l-16.2,3.84c-1.56.37-2.53,1.94-2.16,3.5.32,1.34,1.51,2.24,2.83,2.24.22,0,.45-.03.67-.08l17.52-4.15c-.02-.15-.01-.3-.04-.46Z"/>
    <path class="st2" d="M57.36,127.89c.12.52.41.95.75,1.31,1.45-.68,2.94-1.2,4.41-1.54l7.63-1.75c.57-.13,1.71-.45,2.92-1.1.37-.2.7-.4,1.01-.62.51-.36,1.79-1.37,2.82-2.93.24-.36.41-.75.6-1.13l-17.97,4.26c-1.56.37-2.53,1.94-2.16,3.5Z"/>
    <path class="st2" d="M87.74,106.71c-.51-.99-1.09-1.93-1.73-2.8-.09-.15-.2-.28-.32-.41-.31-.4-.69-.71-1.03-1.09-1.47-1.63-3.11-3.07-4.91-4.19-.26-.16-.52-.29-.78-.44-2.05-1.17-4.22-2.03-6.35-2.51l-1.11-.25-8.47-1.94c-.41-.09-.86-.2-1.33-.32-.43-.11-.9-.24-1.36-.37-2.08-.59-4.43-1.41-6.54-2.63-1.29-.75-2.49-1.58-3.6-2.47-1.99-1.61-3.69-3.45-5.06-5.47-.41-.59-.75-1.23-1.1-1.85-.64-1.15-1.23-2.34-1.67-3.59,0-.01,0-.02-.01-.03-.62-1.75-1.04-3.58-1.24-5.47-.03-.27-.02-.56-.05-.83-.05-.63-.1-1.26-.1-1.9,0-.92.05-1.84.16-2.74.05-.45.16-.89.23-1.33.24-1.42.57-2.81,1.06-4.14.17-.47.4-.92.6-1.37.62-1.43,1.33-2.81,2.2-4.1.71-1.04,1.5-2.03,2.35-2.96.83-.89,1.71-1.74,2.66-2.52,4.65-3.8,10.69-6.1,17.28-6.1h3.35c.79,0,1.51-.31,2.03-.8.52-.49.85-1.18.85-1.93,0-1.51-1.29-2.74-2.88-2.74h-3.35c-10.62,0-20.07,4.91-25.95,12.47-.14.14-.26.3-.36.46,0,0-.01.02-.02.02-.78,1.04-1.46,2.14-2.1,3.27-.6,1.06-1.13,2.16-1.59,3.3-.68,1.65-1.26,3.36-1.63,5.14l-.02.1c-.4,1.93-.62,3.93-.62,5.97s.2,4.01.58,5.93c0,.03.01.05.02.08,0,.03.01.06.02.09,1.71,8.38,6.96,15.54,14.98,20.2,3.25,1.89,6.84,2.99,9.6,3.67.05.02.1.03.14.04.06.02.12.03.18.04.33.08.65.16.95.22l7.47,1.71,2.11.48c1.67.38,3.36,1.05,4.96,1.99.68.4,1.34.87,1.97,1.37,1.42,1.12,2.71,2.47,3.71,4.05.01.02.03.03.04.05.99,1.56,1.71,3.34,2.05,5.32,0,.03,0,.07,0,.1.15.84.23,1.72.23,2.63s-.09,1.69-.22,2.47c-.01.08,0,.18-.02.27-.4,2.23-1.27,4.1-2.27,5.62-.18.28-.38.51-.58.77-1.34,1.79-2.81,3.03-3.73,3.69-.54.39-1.09.72-1.63,1.01-1.75.95-3.42,1.43-4.38,1.65l-7.62,1.75c-5.89,1.35-12.24,6.54-12.24,14.76s7.15,15.17,15.95,15.17h7.34c1.59,0,2.88-1.22,2.88-2.74s-1.29-2.74-2.88-2.74h-7.34c-4.01,0-7.48-2.22-9.14-5.43-.25-.49-.47-1-.63-1.53-.28-.87-.42-1.78-.42-2.74,0-.36.04-.7.08-1.04.06-.59.16-1.16.32-1.69,1.11-3.68,4.37-6,7.44-6.71l7.62-1.74c2.07-.48,5.16-1.49,8.12-3.61,3.61-2.58,6.25-5.99,7.73-9.83.62-1.61,1.03-3.29,1.23-5.03.09-.77.14-1.55.14-2.33,0-1.46-.18-2.83-.45-4.15-.38-1.89-.99-3.65-1.82-5.25Z"/>
  </g>
</svg>